<svg width="20" height="20" viewBox="0 0 20 20" fill="none" xmlns="http://www.w3.org/2000/svg">
<path d="M12.5388 6.55182L15.2292 9.24249L2.87858 9.24249C2.37652 9.24249 1.96949 9.64952 1.96949 10.1516C1.96949 10.6536 2.37652 11.0607 2.87858 11.0607L15.2292 11.0607L12.5388 13.7511C12.3612 13.9286 12.2725 14.1613 12.2725 14.3939C12.2725 14.6265 12.3612 14.8592 12.5388 15.0367C12.8938 15.3917 13.4694 15.3917 13.8244 15.0367L18.0666 10.7945C18.0879 10.7733 18.1079 10.7509 18.127 10.7276C18.1355 10.7173 18.1428 10.7064 18.1508 10.6959C18.1606 10.6828 18.1708 10.6699 18.1799 10.6563C18.1885 10.6435 18.1959 10.6301 18.2039 10.6169C18.2112 10.6047 18.2189 10.5927 18.2256 10.5801C18.2328 10.5666 18.2389 10.5528 18.2454 10.539C18.2516 10.5259 18.2582 10.5129 18.2637 10.4995C18.2692 10.4862 18.2737 10.4727 18.2785 10.4592C18.2837 10.4447 18.2892 10.4303 18.2937 10.4155C18.2978 10.4021 18.3007 10.3885 18.3042 10.375C18.308 10.3598 18.3123 10.3447 18.3154 10.3292C18.3185 10.3137 18.3202 10.2981 18.3225 10.2826C18.3245 10.2688 18.3271 10.2552 18.3285 10.2412C18.3313 10.2129 18.3326 10.1845 18.3328 10.1562C18.3328 10.1547 18.333 10.1532 18.333 10.1516C18.333 10.1496 18.3327 10.1476 18.3327 10.1456C18.3325 10.1177 18.3313 10.0898 18.3285 10.0621C18.3271 10.0479 18.3245 10.0341 18.3224 10.0201C18.3202 10.0048 18.3184 9.9894 18.3154 9.97418C18.3123 9.95849 18.308 9.94327 18.3041 9.92788C18.3007 9.91449 18.2978 9.90109 18.2938 9.88788C18.2893 9.87291 18.2837 9.85843 18.2784 9.84376C18.2736 9.83043 18.2693 9.81703 18.2638 9.80382C18.2582 9.79018 18.2516 9.77721 18.2453 9.76394C18.2388 9.7503 18.2328 9.73655 18.2256 9.72315C18.2188 9.71055 18.2111 9.69855 18.2038 9.68624C18.1959 9.67303 18.1885 9.6597 18.1799 9.64691C18.1709 9.6334 18.1609 9.62079 18.1511 9.60782C18.1431 9.59703 18.1356 9.58594 18.1269 9.5754C18.1088 9.55327 18.0895 9.53206 18.0694 9.51176C18.0684 9.51079 18.0676 9.50976 18.0667 9.50879L13.8245 5.26625C13.4694 4.91128 12.8939 4.91122 12.5388 5.26625C12.1837 5.62122 12.1839 6.19685 12.5388 6.55182Z" fill="#E2E2E2"/>
</svg>
