<svg width="21" height="20" viewBox="0 0 21 20" fill="none" xmlns="http://www.w3.org/2000/svg">
<path d="M10.3165 0.423147C10.3861 0.262571 10.6139 0.262571 10.6835 0.423147L13.1686 6.15401C13.1976 6.22084 13.2606 6.26663 13.3331 6.27354L19.5514 6.86608C19.7257 6.88268 19.796 7.09926 19.6648 7.2151L14.9824 11.3495C14.9278 11.3977 14.9037 11.4718 14.9196 11.5429L16.2776 17.64C16.3156 17.8108 16.1314 17.9447 15.9807 17.8557L10.6017 14.68C10.539 14.643 10.461 14.643 10.3983 14.68L5.01931 17.8557C4.8686 17.9447 4.68437 17.8108 4.72242 17.64L6.08045 11.5429C6.09628 11.4718 6.07221 11.3977 6.01761 11.3495L1.33517 7.2151C1.20397 7.09926 1.27434 6.88268 1.44857 6.86608L7.66689 6.27354C7.7394 6.26663 7.80243 6.22084 7.83141 6.15401L10.3165 0.423147Z" fill="#E98D4B"/>
</svg>
