<svg width="25" height="24" viewBox="0 0 25 24" fill="none" xmlns="http://www.w3.org/2000/svg">
<path d="M19.4287 11H13.4287V5C13.4287 4.73478 13.3234 4.48043 13.1358 4.29289C12.9483 4.10536 12.6939 4 12.4287 4C12.1635 4 11.9091 4.10536 11.7216 4.29289C11.5341 4.48043 11.4287 4.73478 11.4287 5V11H5.42871C5.16349 11 4.90914 11.1054 4.7216 11.2929C4.53407 11.4804 4.42871 11.7348 4.42871 12C4.42871 12.2652 4.53407 12.5196 4.7216 12.7071C4.90914 12.8946 5.16349 13 5.42871 13H11.4287V19C11.4287 19.2652 11.5341 19.5196 11.7216 19.7071C11.9091 19.8946 12.1635 20 12.4287 20C12.6939 20 12.9483 19.8946 13.1358 19.7071C13.3234 19.5196 13.4287 19.2652 13.4287 19V13H19.4287C19.6939 13 19.9483 12.8946 20.1358 12.7071C20.3234 12.5196 20.4287 12.2652 20.4287 12C20.4287 11.7348 20.3234 11.4804 20.1358 11.2929C19.9483 11.1054 19.6939 11 19.4287 11Z" fill="white"/>
</svg>
